<svg width="92" height="92" viewBox="0 0 92 92" fill="none" xmlns="http://www.w3.org/2000/svg" preserveAspectRatio="none">
<rect x="0" y="0" width="92" height="92" fill="white"/>
<path d="M29.4862 38.0341C29.4862 32.8577 33.6281 28.6604 38.7362 28.6604H56.599L76.3837 8.61108H27.0606L9.3623 26.5461V56.0524H29.4862V38.0237V38.0341Z" fill="black"/>
<path d="M63.2384 36.0864V53.4903C63.2384 58.6666 59.0965 62.864 53.9884 62.864H36.8142L16.3409 83.6111H65.664L83.3623 65.6761V36.0968H63.2384V36.0864Z" fill="black"/>
<path d="M46.3726 37.3923H46.3623C41.6113 37.3923 37.7598 41.2959 37.7598 46.1111V46.1215C37.7598 50.9367 41.6113 54.8403 46.3623 54.8403H46.3726C51.1236 54.8403 54.9751 50.9367 54.9751 46.1215V46.1111C54.9751 41.2959 51.1236 37.3923 46.3726 37.3923Z" fill="black"/>
</svg>
